<svg width="17px" height="17px" viewBox="1 1 17 17" version="1.1" xmlns="http://www.w3.org/2000/svg" xmlns:xlink="http://www.w3.org/1999/xlink">
    <path d="M15.7659935,1.344 C16.6301113,1.344 17.344,2.05788868 17.344,2.92200646 L17.344,12.5366688 C17.344,13.4007866 16.6301113,14.1519321 15.7659935,14.1519321 L4.5360679,14.1519321 L1.344,17.344 L1.344,2.92200646 C1.344,2.05788868 2.05788868,1.344 2.92200646,1.344 L15.7671954,1.344 L15.7659935,1.344 Z M6.00120183,11.6253286 L7.99143694,11.6253286 L13.5126568,6.10410877 C13.6628859,5.95387967 13.6628859,5.69067828 13.5126568,5.54044919 L12.0848794,4.11267182 C11.9346503,3.96244273 11.671449,3.96244273 11.5212199,4.11267182 L6,9.63389168 L6,11.6241268 L6.00120183,11.6253286 Z" stroke="none" fill="#FFFFFF" fill-rule="evenodd"></path>
</svg>