<?xml version="1.0" encoding="utf-8"?>
<!-- Generated by IcoMoon.io -->
<!DOCTYPE svg PUBLIC "-//W3C//DTD SVG 1.1//EN" "http://www.w3.org/Graphics/SVG/1.1/DTD/svg11.dtd">
<svg version="1.1" xmlns="http://www.w3.org/2000/svg" xmlns:xlink="http://www.w3.org/1999/xlink" width="12" height="12" viewBox="0 0 12 12">
<path d="M10.756 2.684c-0.26-0.355-0.623-0.77-1.022-1.168s-0.813-0.761-1.168-1.022c-0.604-0.443-0.898-0.494-1.066-0.494h-5.813c-0.517 0-0.938 0.421-0.938 0.938v10.125c0 0.517 0.421 0.938 0.938 0.938h8.625c0.517 0 0.938-0.421 0.938-0.938v-7.313c0-0.168-0.051-0.461-0.494-1.066zM9.204 2.046c0.36 0.36 0.642 0.684 0.851 0.954h-1.804v-1.804c0.269 0.208 0.594 0.491 0.954 0.85zM10.5 11.063c0 0.102-0.086 0.188-0.188 0.188h-8.625c-0.102 0-0.188-0.086-0.188-0.188v-10.125c0-0.102 0.086-0.188 0.188-0.188 0 0 5.812-0 5.813 0v2.625c0 0.207 0.168 0.375 0.375 0.375h2.625v7.313z"></path>
</svg>
